<mxfile host="app.diagrams.net" agent="Mozilla/5.0 (Windows NT 10.0; Win64; x64) AppleWebKit/537.36 (KHTML, like Gecko) Chrome/130.0.0.0 Safari/537.36" version="24.8.3">
  <diagram name="Page-1" id="SaEoN9mTMrmkv7ZPUAHL">
    <mxGraphModel dx="1366" dy="645" grid="0" gridSize="10" guides="1" tooltips="1" connect="1" arrows="1" fold="1" page="0" pageScale="1" pageWidth="850" pageHeight="1100" math="0" shadow="0">
      <root>
        <mxCell id="0" />
        <mxCell id="1" parent="0" />
        <mxCell id="6gW5ZAXKFjLs13xYV5Po-3" value="" style="group" vertex="1" connectable="0" parent="1">
          <mxGeometry x="-222" y="106" width="92" height="92" as="geometry" />
        </mxCell>
        <mxCell id="6gW5ZAXKFjLs13xYV5Po-2" value="" style="ellipse;whiteSpace=wrap;html=1;aspect=fixed;" vertex="1" parent="6gW5ZAXKFjLs13xYV5Po-3">
          <mxGeometry width="92" height="92" as="geometry" />
        </mxCell>
        <mxCell id="6gW5ZAXKFjLs13xYV5Po-1" value="Initial" style="ellipse;whiteSpace=wrap;html=1;aspect=fixed;" vertex="1" parent="6gW5ZAXKFjLs13xYV5Po-3">
          <mxGeometry x="6" y="6" width="80" height="80" as="geometry" />
        </mxCell>
        <mxCell id="6gW5ZAXKFjLs13xYV5Po-15" style="edgeStyle=none;curved=1;rounded=0;orthogonalLoop=1;jettySize=auto;html=1;exitX=1;exitY=0.5;exitDx=0;exitDy=0;entryX=0;entryY=0.5;entryDx=0;entryDy=0;fontSize=12;startSize=8;endSize=8;" edge="1" parent="1" source="6gW5ZAXKFjLs13xYV5Po-4" target="6gW5ZAXKFjLs13xYV5Po-8">
          <mxGeometry relative="1" as="geometry" />
        </mxCell>
        <mxCell id="6gW5ZAXKFjLs13xYV5Po-24" value="Identifier" style="edgeLabel;html=1;align=center;verticalAlign=middle;resizable=0;points=[];fontSize=12;" vertex="1" connectable="0" parent="6gW5ZAXKFjLs13xYV5Po-15">
          <mxGeometry y="-3" relative="1" as="geometry">
            <mxPoint x="-4" y="-3" as="offset" />
          </mxGeometry>
        </mxCell>
        <mxCell id="6gW5ZAXKFjLs13xYV5Po-4" value="Message" style="ellipse;whiteSpace=wrap;html=1;aspect=fixed;" vertex="1" parent="1">
          <mxGeometry x="-30" y="106" width="92" height="92" as="geometry" />
        </mxCell>
        <mxCell id="6gW5ZAXKFjLs13xYV5Po-5" style="edgeStyle=none;curved=1;rounded=0;orthogonalLoop=1;jettySize=auto;html=1;entryX=0;entryY=0.5;entryDx=0;entryDy=0;fontSize=12;startSize=8;endSize=8;" edge="1" parent="1" source="6gW5ZAXKFjLs13xYV5Po-1" target="6gW5ZAXKFjLs13xYV5Po-4">
          <mxGeometry relative="1" as="geometry" />
        </mxCell>
        <mxCell id="6gW5ZAXKFjLs13xYV5Po-6" value="Message" style="edgeLabel;html=1;align=center;verticalAlign=middle;resizable=0;points=[];fontSize=12;" vertex="1" connectable="0" parent="6gW5ZAXKFjLs13xYV5Po-5">
          <mxGeometry x="-0.2" y="2" relative="1" as="geometry">
            <mxPoint as="offset" />
          </mxGeometry>
        </mxCell>
        <mxCell id="6gW5ZAXKFjLs13xYV5Po-22" style="edgeStyle=none;curved=1;rounded=0;orthogonalLoop=1;jettySize=auto;html=1;exitX=0.576;exitY=0.033;exitDx=0;exitDy=0;entryX=0.5;entryY=0;entryDx=0;entryDy=0;fontSize=12;startSize=8;endSize=8;exitPerimeter=0;" edge="1" parent="1" source="6gW5ZAXKFjLs13xYV5Po-29" target="6gW5ZAXKFjLs13xYV5Po-10">
          <mxGeometry relative="1" as="geometry">
            <Array as="points">
              <mxPoint x="662" y="1" />
            </Array>
          </mxGeometry>
        </mxCell>
        <mxCell id="6gW5ZAXKFjLs13xYV5Po-30" style="edgeStyle=none;curved=1;rounded=0;orthogonalLoop=1;jettySize=auto;html=1;exitX=1;exitY=0.5;exitDx=0;exitDy=0;fontSize=12;startSize=8;endSize=8;" edge="1" parent="1" source="6gW5ZAXKFjLs13xYV5Po-7" target="6gW5ZAXKFjLs13xYV5Po-29">
          <mxGeometry relative="1" as="geometry" />
        </mxCell>
        <mxCell id="6gW5ZAXKFjLs13xYV5Po-7" value="Equals" style="ellipse;whiteSpace=wrap;html=1;aspect=fixed;" vertex="1" parent="1">
          <mxGeometry x="890" y="110" width="92" height="92" as="geometry" />
        </mxCell>
        <mxCell id="6gW5ZAXKFjLs13xYV5Po-16" style="edgeStyle=none;curved=1;rounded=0;orthogonalLoop=1;jettySize=auto;html=1;entryX=0;entryY=0.5;entryDx=0;entryDy=0;fontSize=12;startSize=8;endSize=8;" edge="1" parent="1" source="6gW5ZAXKFjLs13xYV5Po-8" target="6gW5ZAXKFjLs13xYV5Po-10">
          <mxGeometry relative="1" as="geometry" />
        </mxCell>
        <mxCell id="6gW5ZAXKFjLs13xYV5Po-8" value="Name" style="ellipse;whiteSpace=wrap;html=1;aspect=fixed;" vertex="1" parent="1">
          <mxGeometry x="154" y="106" width="92" height="92" as="geometry" />
        </mxCell>
        <mxCell id="6gW5ZAXKFjLs13xYV5Po-18" style="edgeStyle=none;curved=1;rounded=0;orthogonalLoop=1;jettySize=auto;html=1;exitX=1;exitY=0.5;exitDx=0;exitDy=0;fontSize=12;startSize=8;endSize=8;" edge="1" parent="1" source="6gW5ZAXKFjLs13xYV5Po-9" target="6gW5ZAXKFjLs13xYV5Po-11">
          <mxGeometry relative="1" as="geometry" />
        </mxCell>
        <mxCell id="6gW5ZAXKFjLs13xYV5Po-9" value="Type" style="ellipse;whiteSpace=wrap;html=1;aspect=fixed;" vertex="1" parent="1">
          <mxGeometry x="522" y="106" width="92" height="92" as="geometry" />
        </mxCell>
        <mxCell id="6gW5ZAXKFjLs13xYV5Po-17" style="edgeStyle=none;curved=1;rounded=0;orthogonalLoop=1;jettySize=auto;html=1;entryX=0;entryY=0.5;entryDx=0;entryDy=0;fontSize=12;startSize=8;endSize=8;" edge="1" parent="1" source="6gW5ZAXKFjLs13xYV5Po-10" target="6gW5ZAXKFjLs13xYV5Po-9">
          <mxGeometry relative="1" as="geometry" />
        </mxCell>
        <mxCell id="6gW5ZAXKFjLs13xYV5Po-20" style="edgeStyle=none;curved=1;rounded=0;orthogonalLoop=1;jettySize=auto;html=1;exitX=0.5;exitY=1;exitDx=0;exitDy=0;entryX=0.5;entryY=0;entryDx=0;entryDy=0;fontSize=12;startSize=8;endSize=8;" edge="1" parent="1" source="6gW5ZAXKFjLs13xYV5Po-10" target="6gW5ZAXKFjLs13xYV5Po-12">
          <mxGeometry relative="1" as="geometry" />
        </mxCell>
        <mxCell id="6gW5ZAXKFjLs13xYV5Po-10" value="OpenMessage" style="ellipse;whiteSpace=wrap;html=1;aspect=fixed;" vertex="1" parent="1">
          <mxGeometry x="338" y="110" width="92" height="92" as="geometry" />
        </mxCell>
        <mxCell id="6gW5ZAXKFjLs13xYV5Po-19" style="edgeStyle=none;curved=1;rounded=0;orthogonalLoop=1;jettySize=auto;html=1;fontSize=12;startSize=8;endSize=8;" edge="1" parent="1" source="6gW5ZAXKFjLs13xYV5Po-11" target="6gW5ZAXKFjLs13xYV5Po-7">
          <mxGeometry relative="1" as="geometry" />
        </mxCell>
        <mxCell id="6gW5ZAXKFjLs13xYV5Po-11" value="FieldName" style="ellipse;whiteSpace=wrap;html=1;aspect=fixed;" vertex="1" parent="1">
          <mxGeometry x="706" y="106" width="92" height="92" as="geometry" />
        </mxCell>
        <mxCell id="6gW5ZAXKFjLs13xYV5Po-23" style="edgeStyle=none;curved=1;rounded=0;orthogonalLoop=1;jettySize=auto;html=1;exitX=1;exitY=0;exitDx=0;exitDy=0;fontSize=12;startSize=8;endSize=8;" edge="1" parent="1" source="6gW5ZAXKFjLs13xYV5Po-12" target="6gW5ZAXKFjLs13xYV5Po-9">
          <mxGeometry relative="1" as="geometry" />
        </mxCell>
        <mxCell id="6gW5ZAXKFjLs13xYV5Po-12" value="List" style="ellipse;whiteSpace=wrap;html=1;aspect=fixed;" vertex="1" parent="1">
          <mxGeometry x="338" y="287" width="92" height="92" as="geometry" />
        </mxCell>
        <mxCell id="6gW5ZAXKFjLs13xYV5Po-21" style="edgeStyle=none;curved=1;rounded=0;orthogonalLoop=1;jettySize=auto;html=1;exitX=0;exitY=1;exitDx=0;exitDy=0;entryX=0.761;entryY=0.88;entryDx=0;entryDy=0;entryPerimeter=0;fontSize=12;startSize=8;endSize=8;" edge="1" parent="1" source="6gW5ZAXKFjLs13xYV5Po-10" target="6gW5ZAXKFjLs13xYV5Po-2">
          <mxGeometry relative="1" as="geometry">
            <Array as="points">
              <mxPoint x="84" y="352" />
            </Array>
          </mxGeometry>
        </mxCell>
        <mxCell id="6gW5ZAXKFjLs13xYV5Po-26" value="{" style="edgeLabel;html=1;align=center;verticalAlign=middle;resizable=0;points=[];fontSize=12;" vertex="1" connectable="0" parent="1">
          <mxGeometry x="285" y="156" as="geometry">
            <mxPoint x="2" y="-2" as="offset" />
          </mxGeometry>
        </mxCell>
        <mxCell id="6gW5ZAXKFjLs13xYV5Po-27" value="Identifier" style="edgeLabel;html=1;align=center;verticalAlign=middle;resizable=0;points=[];fontSize=12;" vertex="1" connectable="0" parent="1">
          <mxGeometry x="472" y="154" as="geometry" />
        </mxCell>
        <mxCell id="6gW5ZAXKFjLs13xYV5Po-28" value="Identifier" style="edgeLabel;html=1;align=center;verticalAlign=middle;resizable=0;points=[];fontSize=12;" vertex="1" connectable="0" parent="1">
          <mxGeometry x="654" y="149" as="geometry" />
        </mxCell>
        <mxCell id="6gW5ZAXKFjLs13xYV5Po-29" value="Index" style="ellipse;whiteSpace=wrap;html=1;aspect=fixed;" vertex="1" parent="1">
          <mxGeometry x="1074" y="110" width="92" height="92" as="geometry" />
        </mxCell>
        <mxCell id="6gW5ZAXKFjLs13xYV5Po-31" value="=" style="edgeLabel;html=1;align=center;verticalAlign=middle;resizable=0;points=[];fontSize=12;" vertex="1" connectable="0" parent="1">
          <mxGeometry x="837" y="155" as="geometry">
            <mxPoint x="-1" y="-2" as="offset" />
          </mxGeometry>
        </mxCell>
        <mxCell id="6gW5ZAXKFjLs13xYV5Po-32" value="Number" style="edgeLabel;html=1;align=center;verticalAlign=middle;resizable=0;points=[];fontSize=12;" vertex="1" connectable="0" parent="1">
          <mxGeometry x="1028" y="156" as="geometry" />
        </mxCell>
        <mxCell id="6gW5ZAXKFjLs13xYV5Po-33" value=";" style="edgeLabel;html=1;align=center;verticalAlign=middle;resizable=0;points=[];fontSize=12;" vertex="1" connectable="0" parent="1">
          <mxGeometry x="674" y="53" as="geometry" />
        </mxCell>
        <mxCell id="6gW5ZAXKFjLs13xYV5Po-34" value="}" style="edgeLabel;html=1;align=center;verticalAlign=middle;resizable=0;points=[];fontSize=12;" vertex="1" connectable="0" parent="1">
          <mxGeometry x="100" y="273" as="geometry" />
        </mxCell>
        <mxCell id="6gW5ZAXKFjLs13xYV5Po-35" value="List" style="edgeLabel;html=1;align=center;verticalAlign=middle;resizable=0;points=[];fontSize=12;" vertex="1" connectable="0" parent="1">
          <mxGeometry x="393" y="237" as="geometry">
            <mxPoint x="-12" as="offset" />
          </mxGeometry>
        </mxCell>
        <mxCell id="6gW5ZAXKFjLs13xYV5Po-36" value="Identifier" style="edgeLabel;html=1;align=center;verticalAlign=middle;resizable=0;points=[];fontSize=12;" vertex="1" connectable="0" parent="1">
          <mxGeometry x="478" y="242" as="geometry" />
        </mxCell>
        <mxCell id="6gW5ZAXKFjLs13xYV5Po-37" style="edgeStyle=none;curved=1;rounded=0;orthogonalLoop=1;jettySize=auto;html=1;fontSize=12;startSize=8;endSize=8;" edge="1" parent="1">
          <mxGeometry relative="1" as="geometry">
            <mxPoint x="-223" y="153" as="targetPoint" />
            <mxPoint x="-294" y="153" as="sourcePoint" />
          </mxGeometry>
        </mxCell>
      </root>
    </mxGraphModel>
  </diagram>
</mxfile>
